<svg width="118" height="32" viewBox="0 0 118 32" fill="none" xmlns="http://www.w3.org/2000/svg">
<g clip-path="url(#clip0_2_3)">
<path d="M22.732 13.6964H12.8175C12.6947 13.6964 12.5769 13.7454 12.49 13.8325C12.4031 13.9197 12.3543 14.0378 12.3542 14.1611V19.0226C12.3543 19.1459 12.4031 19.2641 12.4899 19.3514C12.5768 19.4386 12.6946 19.4878 12.8175 19.488H16.6852V25.5278C16.6852 25.5278 15.8168 25.825 13.4158 25.825C10.5831 25.825 6.62601 24.7867 6.62601 16.06C6.62601 7.3316 10.7465 6.18293 14.6149 6.18293C17.9635 6.18293 19.4061 6.77452 20.3239 7.0591C20.6124 7.1478 20.8792 6.86001 20.8792 6.60302L21.9852 1.90608C21.9852 1.78609 21.9447 1.64121 21.8081 1.5429C21.4354 1.27631 19.1611 0 13.4158 0C6.797 0 0.00773621 2.82438 0.00773621 16.4003C0.00773621 29.9771 7.78093 32 14.3312 32C19.7547 32 23.0448 29.6755 23.0448 29.6755C23.1804 29.6002 23.1952 29.4102 23.1952 29.323V14.1608C23.1952 13.9046 22.9878 13.6964 22.732 13.6964ZM73.8275 1.62667C73.8281 1.56566 73.8166 1.50514 73.7937 1.44859C73.7708 1.39205 73.737 1.3406 73.6943 1.29719C73.6515 1.25378 73.6006 1.21927 73.5445 1.19565C73.4884 1.17202 73.4282 1.15974 73.3674 1.15952H67.7846C67.7237 1.15974 67.6634 1.17201 67.6072 1.19561C67.551 1.21921 67.4999 1.25368 67.457 1.29706C67.4141 1.34044 67.3801 1.39187 67.357 1.44843C67.3338 1.50498 67.3221 1.56555 67.3223 1.62667L67.3238 12.4464H58.6222V1.62667C58.6226 1.56563 58.611 1.5051 58.5881 1.44856C58.5652 1.39201 58.5314 1.34056 58.4886 1.29716C58.4458 1.25376 58.3948 1.21926 58.3387 1.19564C58.2826 1.17202 58.2224 1.15974 58.1615 1.15952H52.5793C52.4563 1.16017 52.3387 1.20974 52.2522 1.29734C52.1658 1.38495 52.1175 1.50341 52.1181 1.62667V30.9235C52.1181 31.1817 52.3252 31.3919 52.5793 31.3919H58.1615C58.4168 31.3919 58.6222 31.1815 58.6222 30.9235V18.3921H67.3238L67.3085 30.9235C67.3085 31.1817 67.5159 31.3919 67.7711 31.3919H73.3669C73.6227 31.3919 73.8271 31.1815 73.8275 30.9235V1.62667ZM33.2664 5.47136C33.2664 3.45514 31.6548 1.826 29.6665 1.826C27.6802 1.826 26.0673 3.45514 26.0673 5.47136C26.0673 7.48511 27.6802 9.11843 29.6665 9.11843C31.6548 9.11843 33.2664 7.48511 33.2664 5.47136ZM32.8672 24.7435V11.2201C32.8675 11.0969 32.8191 10.9785 32.7325 10.8909C32.6459 10.8034 32.5282 10.7539 32.4053 10.7532H26.8405C26.5852 10.7532 26.3568 11.0174 26.3568 11.2744V30.649C26.3568 31.2187 26.7105 31.3877 27.1685 31.3877H32.1822C32.7323 31.3877 32.8672 31.1167 32.8672 30.6402V24.7435ZM95.0432 10.7973H89.5034C89.2494 10.7973 89.0425 11.0073 89.0425 11.2657V25.6308C89.0425 25.6308 87.635 26.6637 85.6377 26.6637C83.6404 26.6637 83.1104 25.7547 83.1104 23.7932V11.2657C83.1104 11.0073 82.9038 10.7973 82.6498 10.7973H77.0272C76.7737 10.7973 76.5656 11.0073 76.5656 11.2657V24.7416C76.5656 30.5677 79.8034 31.9931 84.2577 31.9931C87.9117 31.9931 90.8576 29.9688 90.8576 29.9688C90.8576 29.9688 90.9979 31.0354 91.0612 31.162C91.1249 31.2882 91.2902 31.4156 91.4688 31.4156L95.0459 31.3998C95.2994 31.3998 95.5075 31.1894 95.5075 30.9321L95.5055 11.266C95.5055 11.0073 95.2984 10.7973 95.0432 10.7973ZM107.999 26.6459C106.077 26.5873 104.774 25.7126 104.774 25.7126V16.4353C104.774 16.4353 106.06 15.6448 107.637 15.5034C109.632 15.3243 111.554 15.9287 111.554 20.701C111.555 25.7338 110.687 26.727 107.999 26.6459ZM110.184 10.1395C107.038 10.1395 104.897 11.5473 104.897 11.5473V1.62692C104.897 1.36821 104.691 1.15952 104.437 1.15952H98.8386C98.7777 1.15981 98.7175 1.17213 98.6613 1.19578C98.6052 1.21943 98.5542 1.25394 98.5114 1.29735C98.4685 1.34075 98.4346 1.3922 98.4116 1.44875C98.3886 1.5053 98.3769 1.56584 98.3772 1.62692V30.9235C98.3772 31.1817 98.5841 31.3919 98.8393 31.3919H102.724C102.898 31.3919 103.031 31.3015 103.129 31.1433C103.225 30.9859 103.364 29.7926 103.364 29.7926C103.364 29.7926 105.654 31.9682 109.987 31.9682C115.075 31.9682 117.992 29.3801 117.992 20.3499C117.992 11.3194 113.333 10.1395 110.184 10.1395ZM48.9116 10.7508H44.724L44.7176 5.20229C44.7176 4.99237 44.6098 4.88741 44.3678 4.88741H38.6612C38.4394 4.88741 38.3202 4.98547 38.3202 5.19909V10.9329C38.3202 10.9329 35.4605 11.625 35.2672 11.6811C35.1707 11.7092 35.086 11.7679 35.0257 11.8484C34.9654 11.9289 34.9328 12.0269 34.9328 12.1276V15.7306C34.9328 15.9898 35.1392 16.1982 35.3944 16.1982H38.3202V24.8658C38.3202 31.3039 42.823 31.9364 45.8615 31.9364C47.2498 31.9364 48.9106 31.4895 49.1847 31.3875C49.3506 31.3264 49.4469 31.1541 49.4469 30.9674L49.4515 27.0039C49.4515 26.7452 49.2339 26.5365 48.9887 26.5365C48.7447 26.5365 48.1205 26.6361 47.4778 26.6361C45.421 26.6361 44.724 25.6769 44.724 24.4353L44.7238 16.198H48.9116C49.1668 16.198 49.3734 15.9893 49.3734 15.7303V11.2172C49.3737 11.1561 49.362 11.0956 49.3389 11.0391C49.3159 10.9826 49.2819 10.9312 49.239 10.8879C49.1961 10.8445 49.1451 10.8101 49.0889 10.7866C49.0327 10.7631 48.9724 10.7509 48.9116 10.7508Z" fill="#121110"/>
</g>
<defs>
<clipPath id="clip0_2_3">
<rect width="118" height="32" fill="white"/>
</clipPath>
</defs>
</svg>
