<svg width="18" height="19" viewBox="0 0 18 19" fill="none" xmlns="http://www.w3.org/2000/svg">
<path d="M16 0.263428H2C1.46957 0.263428 0.960859 0.474141 0.585786 0.849214C0.210714 1.22429 0 1.73299 0 2.26343V16.2634C0 16.7939 0.210714 17.3026 0.585786 17.6776C0.960859 18.0527 1.46957 18.2634 2 18.2634H16C16.5304 18.2634 17.0391 18.0527 17.4142 17.6776C17.7893 17.3026 18 16.7939 18 16.2634V2.26343C18 1.73299 17.7893 1.22429 17.4142 0.849214C17.0391 0.474141 16.5304 0.263428 16 0.263428ZM16 16.2634H2V2.26343H16V16.2634ZM8 13.2634H7C5.39 13.2634 3 12.2034 3 9.26343C3 6.33343 5.39 5.26343 7 5.26343H8V7.26343H7C6.54 7.26343 5 7.43343 5 9.26343C5 11.1634 6.67 11.2634 7 11.2634H8V13.2634ZM11 13.2634H10V11.2634H11C11.46 11.2634 13 11.0934 13 9.26343C13 7.36343 11.33 7.26343 11 7.26343H10V5.26343H11C12.61 5.26343 15 6.33343 15 9.26343C15 12.2034 12.61 13.2634 11 13.2634ZM12 10.2634H6V8.26343H12V10.2634Z" fill="white"/>
</svg>
